<svg width="216" height="217" viewBox="0 0 216 217" fill="none" xmlns="http://www.w3.org/2000/svg">
<path d="M105.979 33.8052L91.8723 36.283C87.9032 36.98 84.1212 34.3281 83.4249 30.3598C82.7275 26.3914 85.3789 22.6094 89.3479 21.9124L103.454 19.4345C105.437 19.0862 107.327 20.411 107.676 22.3939L108.938 29.5846C109.286 31.5672 107.962 33.4568 105.979 33.8052ZM125.486 55.0847L111.378 57.5625C107.41 58.2595 103.628 55.6076 102.931 51.6393C102.234 47.6709 104.886 43.8889 108.854 43.1919L122.961 40.7141C124.945 40.3658 126.833 41.6906 127.182 43.6734L128.444 50.8642C128.794 52.8467 127.468 54.7364 125.486 55.0847ZM129.222 166.131L115.114 168.609C111.146 169.307 108.494 173.089 109.191 177.057C109.889 181.025 113.671 183.677 117.639 182.98L131.746 180.503C133.728 180.153 135.054 178.264 134.705 176.281L133.442 169.091C133.094 167.108 131.204 165.783 129.222 166.131ZM140.309 139.478L126.202 141.955C122.233 142.653 119.582 146.435 120.279 150.403C120.975 154.372 124.757 157.023 128.726 156.327L142.833 153.849C144.816 153.5 146.141 151.611 145.792 149.628L144.53 142.438C144.182 140.455 142.292 139.13 140.309 139.478Z" fill="#8C8C8C"/>
<path d="M67.8667 8.18364L153.186 90.0184L93.347 100.529L47.6817 8.1194C46.59 5.91045 47.9269 3.27258 50.3534 2.84635C56.7033 1.73107 63.2113 3.7071 67.8667 8.18364ZM87.475 214.187C85.0477 214.613 82.8926 212.588 83.1657 210.14L94.6037 107.682L154.443 97.1711L102.122 203.2C99.2661 208.977 93.8243 213.072 87.475 214.187ZM22.1642 157.714L19.0234 158.266C16.9683 158.627 15.1682 156.859 15.4913 154.798L21.4383 116.857L2.91599 83.2028C1.90996 81.3749 3.00033 79.1007 5.0549 78.7395L8.19634 78.1882C12.5879 77.4168 17.0974 78.6064 20.5363 81.4449L55.5418 110.336L56.4133 110.183L56.0682 110.775L56.5928 111.203L55.7213 111.357L32.656 150.447C30.3899 154.287 26.5561 156.943 22.1642 157.714Z" fill="#0099FF"/>
<path d="M55.4796 126.333C44.3995 127.724 26.7953 127.577 18.4139 124.754L14.3717 123.402C12.7937 122.873 11.4745 120.977 11.071 118.679C10.6675 116.382 11.261 114.148 12.5646 113.114L15.904 110.465C22.8219 104.955 39.3225 98.818 50.2132 96.3497L171.397 70.0738C187.551 66.3733 210.539 69.7414 212.907 83.2278C215.277 96.7149 194.812 107.715 178.363 109.741L55.4796 126.333Z" fill="#F2F2F2"/>
<path d="M135.25 168.825C134.713 165.783 131.805 163.743 128.766 164.276L122.92 165.296L126.343 158.393C127.215 158.494 128.101 158.484 128.967 158.332L143.081 155.881C146.107 155.35 148.172 152.483 147.629 149.399L146.383 142.218C145.87 139.176 142.97 137.122 139.908 137.639L136.325 138.262L147.361 116.008L178.589 111.852C189.581 110.519 204.577 104.824 211.529 95.4703C217.484 87.4541 215.878 78.1833 207.561 72.6301C197.865 66.1683 181.826 65.8646 171.05 68.3123L140.244 74.9316L122.353 57.7025L125.925 57.0814C128.961 56.5496 131.009 53.6493 130.473 50.5999L129.226 43.4176C128.714 40.3778 125.813 38.3261 122.752 38.8397L108.64 41.2912C107.759 41.4456 106.934 41.7294 106.161 42.1121L100.625 36.7813L106.444 35.7677C109.493 35.232 111.542 32.3276 111.01 29.3007L109.768 22.0716C109.213 19.031 106.295 16.9935 103.273 17.5257L89.1578 19.9767C87.6621 20.2396 86.2794 20.8938 85.0897 21.823L69.4026 6.71704C64.3559 1.90893 57.0788 -0.344742 50.2049 0.844177C46.5013 1.49762 44.4409 5.5001 46.0973 8.90598L84.4594 86.9168L49.8 94.3637C47.3787 94.908 44.7108 95.6274 41.9526 96.4648L21.8397 79.8041C17.9369 76.5765 12.8663 75.2408 7.9159 76.1102L4.75366 76.6525C1.39961 77.2398 -0.409334 80.9707 1.23222 83.9773L14.7833 108.712C14.7508 108.737 14.7115 108.763 14.6793 108.789L11.3346 111.432C9.87202 112.587 9.03129 114.619 8.97686 116.895L4.2585 117.715C3.19234 117.899 2.47857 118.914 2.66357 119.979C2.84776 121.045 3.86219 121.76 4.92795 121.574L9.64901 120.753C10.3838 122.664 11.7644 124.461 13.7121 125.115C14.8184 125.486 17.2195 126.299 17.8845 126.514L13.4721 154.341C12.9052 157.758 15.8881 160.635 19.2647 160.065L22.4021 159.514C27.3646 158.642 31.6856 155.664 34.26 151.337L47.5609 128.882C50.4486 128.74 53.2108 128.518 55.6805 128.212C55.6856 128.211 55.6922 128.21 55.6984 128.209L90.8267 123.534L81.0256 209.899C80.5834 213.697 83.9762 216.788 87.6111 216.123C94.5547 214.904 100.562 210.406 103.679 204.095L113.348 184.598C114.789 185.081 116.322 185.233 117.826 184.969L131.939 182.518C134.989 181.982 137.034 179.065 136.5 176.02L135.25 168.825ZM140.57 141.501C141.492 141.346 142.366 141.961 142.522 142.878L143.771 150.074C143.934 151.003 143.334 151.86 142.409 152.023L128.292 154.474C128.29 154.474 128.288 154.474 128.286 154.474L134.168 142.615L140.57 141.501ZM123.413 42.7011C124.333 42.5463 125.21 43.1594 125.365 44.0781L126.614 51.2738C126.776 52.2038 126.142 53.0673 125.251 53.2225L118.854 54.3339L109.315 45.1496L123.413 42.7011ZM89.8322 23.8354L103.947 21.3844C104.862 21.2265 105.746 21.8485 105.911 22.7555L107.15 29.9713C107.311 30.8842 106.678 31.7484 105.77 31.9093L97.128 33.4147L87.9442 24.5703C88.5165 24.2102 89.1499 23.9553 89.8322 23.8354ZM49.6171 7.18498C49.1058 6.13454 49.744 4.90439 50.878 4.70389C56.5432 3.72438 62.575 5.63317 66.6941 9.54681L135.628 75.9231L88.4065 86.0694L49.6171 7.18498ZM4.66941 82.0963C4.31793 81.454 4.70443 80.6386 5.4231 80.5115L8.58535 79.9702C12.4128 79.2979 16.3328 80.3374 19.3421 82.8227L37.5286 97.8866C30.3806 100.316 23.1106 103.408 18.0361 106.494L4.66941 82.0963ZM30.8915 149.337C28.9028 152.679 25.5615 154.981 21.7242 155.656L18.6002 156.205C17.886 156.325 17.2106 155.739 17.3388 154.968L21.694 127.504C27.5096 128.698 35.3844 129.157 42.9235 129.035L30.8915 149.337ZM55.191 124.325C28.7714 127.589 15.2472 121.445 14.9613 121.403C14.5392 121.261 14.0543 120.766 13.6511 120.059L29.7177 117.269C30.7838 117.084 31.4976 116.069 31.3126 115.003C31.1283 113.938 30.1126 113.224 29.0482 113.409L12.9836 116.199C13.1246 115.406 13.4131 114.782 13.7638 114.505C13.9574 114.401 24.668 104.027 50.642 98.1897L171.896 72.1377C182.221 69.7926 197.042 70.329 205.389 75.8911C211.795 80.1403 213.011 86.9078 208.384 93.1341C202.402 101.185 188.629 106.688 178.095 107.966L55.191 124.325ZM86.9277 212.252C85.8341 212.438 84.7776 211.548 84.9176 210.347L94.8298 123.002L142.679 116.632L100.169 202.357C97.7083 207.34 92.9248 211.199 86.9277 212.252ZM131.266 178.66L117.152 181.11C116.472 181.229 115.78 181.199 115.109 181.047L120.762 169.648L129.442 168.135C130.356 167.977 131.232 168.59 131.391 169.499L132.641 176.695C132.806 177.633 132.171 178.501 131.266 178.66Z" fill="black"/>
<path d="M191.776 87.1419C190.977 82.5285 187.444 78.2563 182.244 79.0287C181.175 79.1868 180.436 80.1833 180.594 81.2538C180.752 82.3254 181.75 83.0638 182.82 82.9037C186.087 82.4164 187.561 85.7612 187.917 87.8113C188.272 89.8613 188.01 93.5012 184.775 94.1446C183.713 94.3567 183.025 95.3872 183.236 96.4488C183.448 97.5123 184.481 98.1967 185.54 97.9866C190.692 96.961 192.578 91.7553 191.776 87.1419Z" fill="black"/>
</svg>
