<svg width="1303" height="457" viewBox="0 0 1303 457" fill="none" xmlns="http://www.w3.org/2000/svg">
<path d="M4.04178 141.656L7.5407 141.57L4.04178 141.656ZM57.6159 285.819L60.595 283.982L57.6159 285.819ZM188.244 408.958L186.281 411.856L188.244 408.958ZM1072.46 432.484L1073.81 435.714L1073.91 435.671L1074.01 435.622L1072.46 432.484ZM1180.18 216.741L1176.7 216.403L1180.18 216.741ZM1019.33 81.5886L1018.64 78.1568L1018.6 78.1664L1018.55 78.1773L1019.33 81.5886ZM979.364 241.269L982.203 239.222L979.364 241.269ZM1265.33 285.819C1265.33 296.128 1273.69 304.486 1284 304.486C1294.31 304.486 1302.67 296.128 1302.67 285.819C1302.67 275.51 1294.31 267.152 1284 267.152C1273.69 267.152 1265.33 275.51 1265.33 285.819ZM64.0427 0.441661C60.0447 4.17429 55.3773 9.07349 50.4249 14.9611L55.7818 19.4671C60.5794 13.7635 65.0546 9.07346 68.8197 5.55834L64.0427 0.441661ZM27.634 47.3079C21.2897 58.1176 15.3737 70.1714 10.6952 83.121L17.2787 85.4995C21.7905 73.0114 27.5111 61.3466 33.6711 50.8511L27.634 47.3079ZM1.44853 121.78C0.703463 128.325 0.375327 134.99 0.542854 141.743L7.5407 141.57C7.38163 135.158 7.69285 128.815 8.4036 122.572L1.44853 121.78ZM0.542854 141.743C0.711793 148.553 1.17956 155.156 1.89986 161.548L8.85583 160.764C8.15787 154.571 7.70447 148.171 7.5407 141.57L0.542854 141.743ZM9.76381 200.394C13.8195 214.162 18.8401 226.499 24.0705 237.326L30.3735 234.281C25.2857 223.749 20.412 211.77 16.4786 198.416L9.76381 200.394ZM43.781 271.588C48.7489 279.07 52.5016 284.194 54.6369 287.656L60.595 283.982C58.4193 280.454 54.2745 274.737 49.6124 267.716L43.781 271.588ZM54.6369 287.656C56.0117 289.885 57.3304 292.437 59.1747 295.777C60.9822 299.051 63.1841 302.869 66.1695 307.313L71.9803 303.41C69.1473 299.193 67.0533 295.564 65.3026 292.394C63.5887 289.29 62.0871 286.401 60.595 283.982L54.6369 287.656ZM96.3722 342.002C105.476 350.695 116.792 360.55 130.989 371.747L135.324 366.251C121.272 355.169 110.127 345.458 101.207 336.939L96.3722 342.002ZM167.542 398.909C173.448 403.077 179.688 407.39 186.281 411.856L190.206 406.06C183.649 401.618 177.446 397.33 171.577 393.189L167.542 398.909ZM186.281 411.856C191.853 415.629 198.316 418.919 205.536 421.784L208.118 415.277C201.262 412.557 195.271 409.49 190.206 406.06L186.281 411.856ZM246.77 432.731C259.654 434.959 273.712 436.582 288.693 437.696L289.213 430.716C274.402 429.614 260.575 428.015 247.963 425.833L246.77 432.731ZM330.865 439.538C344.457 439.775 358.547 439.724 372.999 439.439L372.861 432.441C358.481 432.724 344.479 432.774 330.987 432.539L330.865 439.538ZM415.048 438.038C428.875 437.409 442.904 436.623 457.028 435.722L456.582 428.736C442.494 429.635 428.508 430.418 414.73 431.045L415.048 438.038ZM498.956 432.758C512.958 431.683 526.954 430.534 540.843 429.351L540.248 422.376C526.374 423.558 512.398 424.705 498.421 425.778L498.956 432.758ZM582.694 425.679C596.914 424.406 610.875 423.14 624.521 421.921L623.898 414.948C610.266 416.167 596.265 417.436 582.07 418.707L582.694 425.679ZM666.334 418.285C680.921 417.069 694.895 415.978 708.089 415.078L707.613 408.094C694.372 408.997 680.361 410.091 665.753 411.309L666.334 418.285ZM749.985 412.839C757.338 412.591 764.261 412.458 770.708 412.458V405.458C764.167 405.458 757.163 405.593 749.748 405.843L749.985 412.839ZM770.708 412.458C776.312 412.458 782.466 413.242 789.193 414.639L790.617 407.786C783.595 406.327 776.94 405.458 770.708 405.458V412.458ZM826.028 425.299C837.445 429.099 849.813 433.373 862.939 437.487L865.032 430.807C851.984 426.718 839.755 422.49 828.239 418.657L826.028 425.299ZM900.57 447.876C912.875 450.726 925.737 453.095 939.127 454.625L939.921 447.67C926.839 446.176 914.241 443.858 902.149 441.057L900.57 447.876ZM978.323 456.411C990.966 456.086 1003.99 454.846 1017.38 452.451L1016.15 445.561C1003.12 447.891 990.451 449.096 978.143 449.414L978.323 456.411ZM1055.39 442.661C1061.47 440.61 1067.61 438.301 1073.81 435.714L1071.11 429.254C1065.06 431.778 1059.08 434.03 1053.15 436.029L1055.39 442.661ZM1074.01 435.622C1079.27 433.022 1085.38 429.086 1091.95 423.75L1087.54 418.314C1081.28 423.392 1075.61 427.022 1070.91 429.347L1074.01 435.622ZM1121.21 393.162C1128.93 383.125 1136.66 371.328 1143.95 357.651L1137.77 354.358C1130.66 367.698 1123.14 379.168 1115.66 388.893L1121.21 393.162ZM1161.09 319.28C1165.65 306.956 1169.78 293.582 1173.31 279.111L1166.51 277.451C1163.04 291.666 1158.99 304.784 1154.52 316.852L1161.09 319.28ZM1181.18 237.93C1182.14 231.173 1182.97 224.223 1183.66 217.079L1176.7 216.403C1176.01 223.446 1175.19 230.293 1174.25 236.948L1181.18 237.93ZM1183.66 217.079C1184.39 209.554 1184.74 202.393 1184.73 195.58L1177.74 195.587C1177.74 202.157 1177.41 209.09 1176.7 216.403L1183.66 217.079ZM1179.08 152.895C1174.59 137.51 1167.6 124.847 1158.87 114.526L1153.53 119.048C1161.6 128.595 1168.13 140.38 1172.37 154.859L1179.08 152.895ZM1124.3 88.2904C1111.15 82.0223 1096.95 78.2309 1082.86 76.242L1081.89 83.1733C1095.42 85.0836 1108.9 88.706 1121.29 94.6091L1124.3 88.2904ZM1039.92 75.1735C1032.33 75.8131 1025.16 76.8509 1018.64 78.1568L1020.02 85.0204C1026.27 83.7675 1033.18 82.7665 1040.51 82.1488L1039.92 75.1735ZM1018.55 78.1773C1013.22 79.4005 1007.54 81.1242 1001.79 83.3817L1004.34 89.8982C1009.77 87.7679 1015.12 86.1463 1020.12 84.9999L1018.55 78.1773ZM971.445 101.035C962.553 108.445 954.804 117.682 949.678 128.94L956.049 131.84C960.664 121.705 967.69 113.275 975.926 106.412L971.445 101.035ZM943.295 163.779C943.806 174.23 946.254 185.636 951.064 198.043L957.591 195.512C953.014 183.708 950.756 173.041 950.287 163.438L943.295 163.779ZM966.817 228.904C969.745 233.588 972.975 238.391 976.525 243.315L982.203 239.222C978.738 234.415 975.594 229.739 972.753 225.194L966.817 228.904ZM976.525 243.315C980.735 249.156 985.214 254.58 989.932 259.611L995.038 254.823C990.526 250.012 986.238 244.819 982.203 239.222L976.525 243.315ZM1022.47 286.272C1034.47 293.744 1047.25 299.602 1060.49 304.088L1062.74 297.458C1049.95 293.127 1037.67 287.49 1026.17 280.33L1022.47 286.272ZM1101.25 313.663C1115.06 315.644 1129.04 316.513 1142.91 316.504L1142.9 309.504C1129.33 309.513 1115.68 308.662 1102.25 306.734L1101.25 313.663ZM1184.51 314C1198.76 312.339 1212.56 309.943 1225.55 307.091L1224.05 300.254C1211.27 303.06 1197.7 305.416 1183.69 307.047L1184.51 314ZM1265.73 296.157C1272.8 293.833 1279.36 291.445 1285.3 289.069L1282.7 282.569C1276.9 284.887 1270.49 287.226 1263.55 289.506L1265.73 296.157Z" fill="#0099FF"/>
</svg>
