<svg width="16" height="16" viewBox="0 0 16 16" fill="none" xmlns="http://www.w3.org/2000/svg">
<g id="mdi:twitter">
<path id="Vector" d="M14.9733 3.99984C14.4599 4.23317 13.9066 4.3865 13.3333 4.45984C13.9199 4.1065 14.3733 3.5465 14.5866 2.87317C14.0333 3.2065 13.4199 3.43984 12.7733 3.57317C12.2466 2.99984 11.5066 2.6665 10.6666 2.6665C9.09995 2.6665 7.81994 3.9465 7.81994 5.5265C7.81994 5.75317 7.84661 5.97317 7.89328 6.17984C5.51995 6.05984 3.40661 4.91984 1.99994 3.19317C1.75328 3.61317 1.61328 4.1065 1.61328 4.6265C1.61328 5.61984 2.11328 6.49984 2.88661 6.99984C2.41328 6.99984 1.97328 6.8665 1.58661 6.6665V6.6865C1.58661 8.07317 2.57328 9.23317 3.87994 9.49317C3.46043 9.60798 3.02001 9.62395 2.59328 9.53984C2.77435 10.1082 3.12897 10.6054 3.60729 10.9618C4.08561 11.3181 4.66358 11.5156 5.25994 11.5265C4.24903 12.3268 2.99594 12.7594 1.70661 12.7532C1.47994 12.7532 1.25328 12.7398 1.02661 12.7132C2.29328 13.5265 3.79994 13.9998 5.41328 13.9998C10.6666 13.9998 13.5533 9.63984 13.5533 5.85984C13.5533 5.73317 13.5533 5.61317 13.5466 5.4865C14.1066 5.0865 14.5866 4.57984 14.9733 3.99984Z" fill="white"/>
</g>
</svg>
