<svg width="60" height="52" viewBox="0 0 60 52" fill="none" xmlns="http://www.w3.org/2000/svg">
<g clip-path="url(#clip0_3639_5822)">
<path d="M56.915 9.89301C56.0015 9.56321 54.9954 9.47652 54.0248 9.64398C53.0542 9.81144 52.1631 10.2255 51.465 10.8333L45 16.4363L33.535 6.5C32.5974 5.68763 31.3258 5.23126 30 5.23126C28.6742 5.23126 27.4026 5.68763 26.465 6.5L15 16.4363L8.535 10.8333C7.83574 10.2275 6.94492 9.81494 5.97516 9.64781C5.00539 9.48068 4.00023 9.5665 3.08673 9.8944C2.17323 10.2223 1.39241 10.7776 0.842992 11.49C0.29357 12.2025 0.000211122 13.0401 0 13.897L0 36.8333C0.00396964 39.7055 1.3222 42.459 3.66555 44.4899C6.00889 46.5208 9.18601 47.6632 12.5 47.6667H47.5C50.814 47.6632 53.9911 46.5208 56.3345 44.4899C58.6778 42.459 59.996 39.7055 60 36.8333V13.897C60.0002 13.04 59.7073 12.2022 59.1582 11.4895C58.6091 10.7768 57.8284 10.2212 56.915 9.89301Z" fill="#0098FF"/>
</g>
<defs>
<clipPath id="clip0_3639_5822">
<rect width="60" height="52" fill="white"/>
</clipPath>
</defs>
</svg>
