<svg width="28" height="23" viewBox="0 0 28 23" fill="none" xmlns="http://www.w3.org/2000/svg">
<path d="M2.12328 1.04573L2.12395 1.04601L26.3087 11.292C26.3088 11.292 26.3088 11.292 26.3088 11.292C26.4074 11.3339 26.4516 11.3823 26.4713 11.4115C26.4924 11.4427 26.5 11.473 26.5 11.5001C26.5 11.5272 26.4924 11.5573 26.4714 11.5883C26.4519 11.6172 26.4079 11.6654 26.3095 11.7071L26.3092 11.7073L2.124 21.9544C2.12397 21.9544 2.12395 21.9544 2.12392 21.9545C1.92579 22.0384 1.72976 21.9968 1.60387 21.9038C1.5429 21.8588 1.51623 21.8146 1.5067 21.7899C1.50013 21.7729 1.49538 21.7528 1.50743 21.7125C1.50746 21.7124 1.50748 21.7123 1.50751 21.7122L3.77299 14.1886C3.77431 14.1874 3.77608 14.1858 3.77838 14.184C3.79372 14.1719 3.8253 14.155 3.87215 14.1489C3.87228 14.1489 3.87242 14.1489 3.87256 14.1489L14.9902 12.7382L14.9907 12.7382C15.6418 12.6552 16.1056 12.1245 16.1056 11.4984C16.1056 10.872 15.6414 10.3412 14.9898 10.2592C14.9891 10.2591 14.9884 10.259 14.9876 10.2589L3.87143 8.84757C3.87129 8.84756 3.87116 8.84754 3.87102 8.84752C3.82418 8.84146 3.7926 8.82457 3.77726 8.81246C3.77496 8.81064 3.77318 8.80907 3.77186 8.80781L1.50759 1.28852C1.50756 1.28843 1.50753 1.28834 1.50751 1.28825C1.49532 1.24749 1.50014 1.22701 1.50677 1.20981C1.51635 1.185 1.54303 1.14083 1.60387 1.09588C1.72945 1.0031 1.92515 0.961619 2.12328 1.04573Z" fill="white" stroke="white" stroke-width="2"/>
</svg>
