<svg width="30" height="30" viewBox="0 0 30 30" fill="none" xmlns="http://www.w3.org/2000/svg">
<path d="M3.75 24C3.75 24.5967 3.98705 25.169 4.40901 25.591C4.83097 26.0129 5.40326 26.25 6 26.25H24C24.5967 26.25 25.169 26.0129 25.591 25.591C26.0129 25.169 26.25 24.5967 26.25 24V12.75H3.75V24ZM19.5 15.5625C19.5 15.4133 19.5593 15.2702 19.6648 15.1648C19.7702 15.0593 19.9133 15 20.0625 15H21.1875C21.3367 15 21.4798 15.0593 21.5852 15.1648C21.6907 15.2702 21.75 15.4133 21.75 15.5625V16.6875C21.75 16.8367 21.6907 16.9798 21.5852 17.0852C21.4798 17.1907 21.3367 17.25 21.1875 17.25H20.0625C19.9133 17.25 19.7702 17.1907 19.6648 17.0852C19.5593 16.9798 19.5 16.8367 19.5 16.6875V15.5625ZM19.5 20.0625C19.5 19.9133 19.5593 19.7702 19.6648 19.6648C19.7702 19.5593 19.9133 19.5 20.0625 19.5H21.1875C21.3367 19.5 21.4798 19.5593 21.5852 19.6648C21.6907 19.7702 21.75 19.9133 21.75 20.0625V21.1875C21.75 21.3367 21.6907 21.4798 21.5852 21.5852C21.4798 21.6907 21.3367 21.75 21.1875 21.75H20.0625C19.9133 21.75 19.7702 21.6907 19.6648 21.5852C19.5593 21.4798 19.5 21.3367 19.5 21.1875V20.0625ZM13.875 15.5625C13.875 15.4133 13.9343 15.2702 14.0398 15.1648C14.1452 15.0593 14.2883 15 14.4375 15H15.5625C15.7117 15 15.8548 15.0593 15.9602 15.1648C16.0657 15.2702 16.125 15.4133 16.125 15.5625V16.6875C16.125 16.8367 16.0657 16.9798 15.9602 17.0852C15.8548 17.1907 15.7117 17.25 15.5625 17.25H14.4375C14.2883 17.25 14.1452 17.1907 14.0398 17.0852C13.9343 16.9798 13.875 16.8367 13.875 16.6875V15.5625ZM13.875 20.0625C13.875 19.9133 13.9343 19.7702 14.0398 19.6648C14.1452 19.5593 14.2883 19.5 14.4375 19.5H15.5625C15.7117 19.5 15.8548 19.5593 15.9602 19.6648C16.0657 19.7702 16.125 19.9133 16.125 20.0625V21.1875C16.125 21.3367 16.0657 21.4798 15.9602 21.5852C15.8548 21.6907 15.7117 21.75 15.5625 21.75H14.4375C14.2883 21.75 14.1452 21.6907 14.0398 21.5852C13.9343 21.4798 13.875 21.3367 13.875 21.1875V20.0625ZM8.25 15.5625C8.25 15.4133 8.30926 15.2702 8.41475 15.1648C8.52024 15.0593 8.66332 15 8.8125 15H9.9375C10.0867 15 10.2298 15.0593 10.3352 15.1648C10.4407 15.2702 10.5 15.4133 10.5 15.5625V16.6875C10.5 16.8367 10.4407 16.9798 10.3352 17.0852C10.2298 17.1907 10.0867 17.25 9.9375 17.25H8.8125C8.66332 17.25 8.52024 17.1907 8.41475 17.0852C8.30926 16.9798 8.25 16.8367 8.25 16.6875V15.5625ZM8.25 20.0625C8.25 19.9133 8.30926 19.7702 8.41475 19.6648C8.52024 19.5593 8.66332 19.5 8.8125 19.5H9.9375C10.0867 19.5 10.2298 19.5593 10.3352 19.6648C10.4407 19.7702 10.5 19.9133 10.5 20.0625V21.1875C10.5 21.3367 10.4407 21.4798 10.3352 21.5852C10.2298 21.6907 10.0867 21.75 9.9375 21.75H8.8125C8.66332 21.75 8.52024 21.6907 8.41475 21.5852C8.30926 21.4798 8.25 21.3367 8.25 21.1875V20.0625Z" fill="#1F2A37"/>
<path d="M26.25 8.25C26.25 7.65326 26.0129 7.08097 25.591 6.65901C25.169 6.23705 24.5967 6 24 6H21.75V4.875C21.75 4.57663 21.6315 4.29048 21.4205 4.0795C21.2095 3.86853 20.9234 3.75 20.625 3.75C20.3266 3.75 20.0405 3.86853 19.8295 4.0795C19.6185 4.29048 19.5 4.57663 19.5 4.875V6H16.125V4.875C16.125 4.57663 16.0065 4.29048 15.7955 4.0795C15.5845 3.86853 15.2984 3.75 15 3.75C14.7016 3.75 14.4155 3.86853 14.2045 4.0795C13.9935 4.29048 13.875 4.57663 13.875 4.875V6H10.5V4.875C10.5 4.57663 10.3815 4.29048 10.1705 4.0795C9.95952 3.86853 9.67337 3.75 9.375 3.75C9.07663 3.75 8.79048 3.86853 8.5795 4.0795C8.36853 4.29048 8.25 4.57663 8.25 4.875V6H6C5.40326 6 4.83097 6.23705 4.40901 6.65901C3.98705 7.08097 3.75 7.65326 3.75 8.25V10.5H26.25V8.25Z" fill="#1F2A37"/>
</svg>
