<svg width="30" height="30" viewBox="0 0 30 30" fill="none" xmlns="http://www.w3.org/2000/svg">
<path d="M27.1338 16.5418C24.4125 19.1427 19.7063 20.4437 15 20.4437C10.2937 20.4437 5.5875 19.1427 2.86625 16.5418L2.5 16.1917V23.8606C2.5 24.4943 2.76339 25.1021 3.23223 25.5502C3.70107 25.9983 4.33696 26.25 5 26.25H25C25.663 26.25 26.2989 25.9983 26.7678 25.5502C27.2366 25.1021 27.5 24.4943 27.5 23.8606V16.1917L27.1338 16.5418Z" fill="#1F2A37"/>
<path d="M25 8.52885H21.25V7.33413C21.25 6.38356 20.8549 5.47192 20.1517 4.79977C19.4484 4.12761 18.4946 3.75 17.5 3.75H12.5C11.5054 3.75 10.5516 4.12761 9.84835 4.79977C9.14509 5.47192 8.75 6.38356 8.75 7.33413V8.52885H5C4.33696 8.52885 3.70107 8.78059 3.23223 9.22869C2.76339 9.6768 2.5 10.2846 2.5 10.9183V12.8131L4.63375 14.8525C9.1875 19.2012 20.8125 19.2012 25.3662 14.8525L27.5 12.8131V10.9183C27.5 10.2846 27.2366 9.6768 26.7678 9.22869C26.2989 8.78059 25.663 8.52885 25 8.52885ZM15 15.6971C14.7528 15.6971 14.5111 15.627 14.3055 15.4958C14.1 15.3645 13.9398 15.1779 13.8452 14.9596C13.7505 14.7413 13.7258 14.5011 13.774 14.2693C13.8223 14.0376 13.9413 13.8247 14.1161 13.6576C14.2909 13.4905 14.5137 13.3767 14.7561 13.3306C14.9986 13.2845 15.2499 13.3082 15.4784 13.3986C15.7068 13.4891 15.902 13.6422 16.0393 13.8387C16.1767 14.0351 16.25 14.2661 16.25 14.5024C16.25 14.8193 16.1183 15.1231 15.8839 15.3472C15.6495 15.5712 15.3315 15.6971 15 15.6971ZM18.75 8.52885H11.25V7.33413C11.25 7.01728 11.3817 6.7134 11.6161 6.48935C11.8505 6.26529 12.1685 6.13942 12.5 6.13942H17.5C17.8315 6.13942 18.1495 6.26529 18.3839 6.48935C18.6183 6.7134 18.75 7.01728 18.75 7.33413V8.52885Z" fill="#1F2A37"/>
</svg>
