<svg width="6417" height="288" viewBox="0 0 6417 288" fill="none" xmlns="http://www.w3.org/2000/svg">
<path d="M6417 0L6308.67 26.7C6200.33 53 5983.67 107 5767 101.3C5550.33 96 5333.67 32 5117 10.7C4900.33 -11 4683.67 11 4467 53.3C4250.33 96 4033.67 160 3817 192C3600.33 224 3383.67 224 3275.33 224H3198.5V288H3275.33C3383.67 288 3600.33 288 3817 288C4033.67 288 4250.33 288 4467 288C4683.67 288 4900.33 288 5117 288C5333.67 288 5550.33 288 5767 288C5983.67 288 6200.33 288 6308.67 288H6417V0Z" fill="#0099FF"/>
<path d="M0 0L108.333 26.7C216.667 53 433.333 107 650 101.3C866.667 96 1083.33 32 1300 10.7C1516.67 -11 1733.33 11 1950 53.3C2166.67 96 2383.33 160 2600 192C2816.67 224 3033.33 224 3141.67 224H3218.5V288H3141.67C3033.33 288 2816.67 288 2600 288C2383.33 288 2166.67 288 1950 288C1733.33 288 1516.67 288 1300 288C1083.33 288 866.667 288 650 288C433.333 288 216.667 288 108.333 288H0V0Z" fill="#0099FF"/>
</svg>
