<svg width="32" height="32" viewBox="0 0 32 32" fill="none" xmlns="http://www.w3.org/2000/svg">
<path d="M28 2.66675H4.00001C3.64638 2.66675 3.30724 2.80722 3.0572 3.05727C2.80715 3.30732 2.66667 3.64646 2.66667 4.00008V28.0001C2.66667 28.3537 2.80715 28.6928 3.0572 28.9429C3.30724 29.1929 3.64638 29.3334 4.00001 29.3334H28C28.3536 29.3334 28.6928 29.1929 28.9428 28.9429C29.1929 28.6928 29.3333 28.3537 29.3333 28.0001V4.00008C29.3333 3.64646 29.1929 3.30732 28.9428 3.05727C28.6928 2.80722 28.3536 2.66675 28 2.66675ZM23.6253 14.3001C23.48 14.3143 23.3341 14.3218 23.188 14.3227C22.3969 14.3238 21.6181 14.1277 20.9218 13.7522C20.2255 13.3767 19.6338 12.8336 19.2 12.1721V19.4961C19.2003 20.5671 18.8829 21.6142 18.288 22.5048C17.6932 23.3955 16.8475 24.0897 15.8581 24.4997C14.8686 24.9096 13.7798 25.017 12.7293 24.8081C11.6788 24.5992 10.7139 24.0835 9.95659 23.3262C9.19926 22.5688 8.68353 21.6039 8.47465 20.5534C8.26576 19.503 8.3731 18.4141 8.78309 17.4247C9.19308 16.4352 9.8873 15.5896 10.7779 14.9947C11.6686 14.3999 12.7156 14.0825 13.7867 14.0827C13.9 14.0827 14.0093 14.0934 14.1213 14.1001V16.7667C13.7483 16.7216 13.37 16.7531 13.0096 16.8595C12.6492 16.9659 12.3144 17.1449 12.0257 17.3855C11.737 17.626 11.5005 17.923 11.3309 18.2583C11.1612 18.5936 11.0619 18.96 11.039 19.3351C11.0162 19.7102 11.0703 20.086 11.198 20.4394C11.3257 20.7928 11.5243 21.1163 11.7816 21.3902C12.039 21.664 12.3496 21.8823 12.6944 22.0316C13.0392 22.181 13.4109 22.2583 13.7867 22.2587C14.5282 22.2722 15.2454 21.994 15.784 21.4841C16.3226 20.9742 16.6395 20.2733 16.6667 19.5321L16.6933 7.09075H19.2453C19.3619 8.19935 19.8644 9.23171 20.6651 10.0073C21.4657 10.7828 22.5136 11.2523 23.6253 11.3334V14.3001Z" fill="white"/>
</svg>
