<svg width="32" height="32" viewBox="0 0 32 32" fill="none" xmlns="http://www.w3.org/2000/svg">
<g clip-path="url(#clip0_40_45)">
<path d="M16 2.66675C8.6333 2.66675 2.66663 8.63341 2.66663 16.0001C2.66512 18.7991 3.54505 21.5276 5.18158 23.7983C6.81812 26.0691 9.12815 27.7668 11.784 28.6507C12.4506 28.7668 12.7 28.3667 12.7 28.0161C12.7 27.7001 12.6826 26.6507 12.6826 25.5334C9.33329 26.1507 8.46663 24.7174 8.19996 23.9667C8.04929 23.5827 7.39996 22.4001 6.83329 22.0827C6.36663 21.8334 5.69996 21.2161 6.81596 21.2001C7.86663 21.1827 8.61596 22.1667 8.86663 22.5667C10.0666 24.5827 11.984 24.0161 12.7493 23.6667C12.8666 22.8001 13.216 22.2174 13.6 21.8841C10.6333 21.5507 7.53329 20.4001 7.53329 15.3001C7.53329 13.8494 8.04929 12.6507 8.89996 11.7161C8.76663 11.3827 8.29996 10.0161 9.03329 8.18275C9.03329 8.18275 10.1493 7.83342 12.7 9.55075C13.7854 9.2495 14.9068 9.09787 16.0333 9.10008C17.1666 9.10008 18.3 9.24941 19.3666 9.54942C21.916 7.81608 23.0333 8.18408 23.0333 8.18408C23.7666 10.0174 23.3 11.3841 23.1666 11.7174C24.016 12.6507 24.5333 13.8334 24.5333 15.3001C24.5333 20.4174 21.4173 21.5507 18.4506 21.8841C18.9333 22.3001 19.3506 23.1001 19.3506 24.3507C19.3506 26.1334 19.3333 27.5667 19.3333 28.0174C19.3333 28.3667 19.584 28.7827 20.2506 28.6494C22.8973 27.7558 25.1972 26.0547 26.8265 23.7856C28.4558 21.5165 29.3325 18.7936 29.3333 16.0001C29.3333 8.63341 23.3666 2.66675 16 2.66675Z" fill="white"/>
</g>
<defs>
<clipPath id="clip0_40_45">
<rect width="32" height="32" fill="white"/>
</clipPath>
</defs>
</svg>
