<svg width="70" height="61" viewBox="0 0 70 61" fill="none" xmlns="http://www.w3.org/2000/svg">
<path d="M36.6484 14.847L36.7409 14.8746L36.7449 14.87C37.1852 14.95 37.622 14.6864 37.7514 14.2497C38.9313 10.2852 42.6484 7.51571 46.7897 7.51571C47.2794 7.51571 47.6766 7.11856 47.6766 6.6289C47.6766 6.13922 47.2794 5.74209 46.7897 5.74209C41.701 5.74209 37.4248 9.13019 36.0518 13.7442C35.9118 14.2137 36.1792 14.7071 36.6484 14.847Z" fill="#0098FF" stroke="#F9FFF9" stroke-width="0.3"/>
<path d="M57.1044 42.7326H52.6837C52.2769 42.7326 51.9469 42.4026 51.9469 41.9958C51.9469 41.589 52.2768 41.259 52.6837 41.259H57.1044C63.1983 41.259 68.1565 36.3008 68.1565 30.2069C68.1565 24.1131 63.1983 19.1549 57.1044 19.1549H56.9981C56.7845 19.1549 56.5813 19.0623 56.4413 18.9007C56.3013 18.7391 56.2382 18.5249 56.2687 18.3134C56.3345 17.8545 56.3676 17.3934 56.3676 16.9445C56.3676 11.6632 52.0704 7.36602 46.7891 7.36602C44.7345 7.36602 42.7751 8.00809 41.1225 9.22327C40.7594 9.49011 40.2436 9.37169 40.0337 8.97223C35.3534 0.0601131 23.1291 -1.13669 16.7914 6.61607C14.1216 9.8822 13.0726 14.1309 13.9131 18.2718C14.0058 18.7292 13.6558 19.1555 13.1911 19.1555H12.8958C6.80199 19.1555 1.84379 24.1137 1.84379 30.2075C1.84379 36.3013 6.80199 41.2595 12.8958 41.2595H17.3166C17.7234 41.2595 18.0534 41.5895 18.0534 41.9963C18.0534 42.4032 17.7234 42.7332 17.3166 42.7332H12.8958C5.9893 42.7332 0.370117 37.114 0.370117 30.2075C0.370117 23.4947 5.67821 17.9981 12.3174 17.6949C11.6938 13.3988 12.8864 9.06536 15.6504 5.6835C22.4358 -2.61762 35.4395 -1.68717 40.9365 7.56918C42.6901 6.46976 44.6968 5.893 46.7889 5.893C53.1875 5.893 58.2578 11.3391 57.8141 17.7018C64.3922 18.0707 69.6298 23.5383 69.6298 30.2069C69.6298 37.114 64.0106 42.7326 57.1041 42.7326L57.1044 42.7326Z" fill="#0098FF"/>
<path d="M16.331 41.5797C16.331 51.8196 24.6616 60.15 34.9013 60.15C45.1412 60.15 53.4716 51.8194 53.4716 41.5797C53.4716 31.3398 45.1412 23.0094 34.9013 23.0094C24.6614 23.0094 16.331 31.34 16.331 41.5797ZM18.105 41.5797C18.105 32.3185 25.6399 24.7834 34.9013 24.7834C44.1625 24.7834 51.6976 32.3184 51.6976 41.5797C51.6976 50.8409 44.1625 58.376 34.9013 58.376C25.6401 58.376 18.105 50.8411 18.105 41.5797Z" fill="#0098FF" stroke="#F9FFF9" stroke-width="0.3"/>
<path d="M34.5487 48.995C34.5487 49.3757 34.8574 49.6844 35.2381 49.6844C35.6187 49.6844 35.9275 49.3761 35.9275 48.995V34.9698C35.9275 34.5892 35.6188 34.2804 35.2381 34.2804C34.8574 34.2804 34.5487 34.5892 34.5487 34.9698V48.995Z" fill="#0098FF" stroke="#0098FF" stroke-width="0.3"/>
<path d="M35.238 35.9462L31.4102 39.7739L35.238 35.9462ZM35.238 35.9462L39.0659 39.774C39.2003 39.9085 39.3773 39.9759 39.5533 39.9759L35.238 35.9462ZM30.4351 39.774C30.7044 40.0433 31.1411 40.0434 31.4101 39.774L39.5534 39.9759C39.7291 39.9759 39.9062 39.909 40.0409 39.774C40.3102 39.5046 40.3102 39.0683 40.0408 38.799L35.7255 34.4836C35.4562 34.2144 35.0195 34.2142 34.7505 34.4836C34.7504 34.4837 34.7504 34.4837 34.7504 34.4837L30.4351 38.799C30.1658 39.0683 30.1658 39.5047 30.4351 39.774Z" fill="#0098FF" stroke="#0098FF" stroke-width="0.3"/>
</svg>
