<svg width="23" height="22" viewBox="0 0 23 22" fill="none" xmlns="http://www.w3.org/2000/svg">
<g clip-path="url(#clip0_2121_3059)">
<path d="M5.58513 6.41657L8.01546 8.74124L6.66038 10.0374L1.91663 5.4999L6.66038 0.962402L8.01546 2.25857L5.58513 4.58324H12.4583C14.4916 4.58324 16.4417 5.35585 17.8794 6.73112C19.3172 8.10639 20.125 9.97165 20.125 11.9166C20.125 13.8615 19.3172 15.7268 17.8794 17.102C16.4417 18.4773 14.4916 19.2499 12.4583 19.2499H3.83329V17.4166H12.4583C13.9833 17.4166 15.4458 16.8371 16.5242 15.8057C17.6025 14.7742 18.2083 13.3753 18.2083 11.9166C18.2083 10.4579 17.6025 9.05893 16.5242 8.02748C15.4458 6.99603 13.9833 6.41657 12.4583 6.41657H5.58513Z" fill="white"/>
</g>
<defs>
<clipPath id="clip0_2121_3059">
<rect width="23" height="22" rx="10" fill="white"/>
</clipPath>
</defs>
</svg>
