<svg width="203" height="31" viewBox="0 0 203 31" fill="none" xmlns="http://www.w3.org/2000/svg">
<path d="M0.528409 30V0.90909H19.7898V5.98011H6.67898V12.9119H18.5114V17.983H6.67898V30H0.528409ZM41.8956 0.90909H48.0462V19.8011C48.0462 21.9223 47.5395 23.7784 46.5263 25.3693C45.5225 26.9602 44.1162 28.2008 42.3075 29.0909C40.4988 29.9716 38.3918 30.4119 35.9865 30.4119C33.5717 30.4119 31.46 29.9716 29.6513 29.0909C27.8426 28.2008 26.4363 26.9602 25.4325 25.3693C24.4287 23.7784 23.9268 21.9223 23.9268 19.8011V0.90909H30.0774V19.2756C30.0774 20.3835 30.3189 21.3684 30.8018 22.2301C31.2943 23.0919 31.9856 23.7689 32.8757 24.2614C33.7659 24.7538 34.8028 25 35.9865 25C37.1797 25 38.2166 24.7538 39.0973 24.2614C39.9875 23.7689 40.674 23.0919 41.157 22.2301C41.6494 21.3684 41.8956 20.3835 41.8956 19.2756V0.90909ZM66.5866 13.054V17.8551H53.3196V13.054H66.5866ZM82.169 30H71.8565V0.90909H82.2543C85.1804 0.90909 87.6993 1.49148 89.8111 2.65625C91.9228 3.81155 93.5469 5.47348 94.6832 7.64205C95.8291 9.81061 96.402 12.4053 96.402 15.4261C96.402 18.4564 95.8291 21.0606 94.6832 23.2386C93.5469 25.4167 91.9134 27.0881 89.7827 28.2528C87.6615 29.4176 85.1236 30 82.169 30ZM78.0071 24.7301H81.9134C83.7315 24.7301 85.2609 24.4081 86.5014 23.7642C87.7514 23.1108 88.6889 22.1023 89.3139 20.7386C89.9484 19.3655 90.2656 17.5947 90.2656 15.4261C90.2656 13.2765 89.9484 11.5199 89.3139 10.1562C88.6889 8.79261 87.7562 7.78883 86.5156 7.14489C85.2751 6.50095 83.7457 6.17898 81.9276 6.17898H78.0071V24.7301ZM100.958 30V0.90909H120.56V5.98011H107.109V12.9119H119.552V17.983H107.109V24.929H120.617V30H100.958ZM130.706 0.90909L137.737 23.0114H138.007L145.053 0.90909H151.871L141.842 30H133.916L123.874 0.90909H130.706ZM155.372 30V0.90909H174.974V5.98011H161.523V12.9119H173.966V17.983H161.523V24.929H175.031V30H155.372ZM179.864 30V0.90909H191.342C193.539 0.90909 195.414 1.30208 196.967 2.08807C198.529 2.86458 199.718 3.9678 200.532 5.39773C201.356 6.81818 201.768 8.48958 201.768 10.4119C201.768 12.3437 201.351 14.0057 200.518 15.3977C199.684 16.7803 198.477 17.8409 196.896 18.5795C195.324 19.3182 193.42 19.6875 191.185 19.6875H183.501V14.7443H190.191C191.365 14.7443 192.341 14.5833 193.117 14.2614C193.894 13.9394 194.471 13.4564 194.85 12.8125C195.238 12.1686 195.433 11.3684 195.433 10.4119C195.433 9.44602 195.238 8.63163 194.85 7.96875C194.471 7.30587 193.889 6.80398 193.103 6.46307C192.326 6.11269 191.346 5.9375 190.163 5.9375H186.015V30H179.864ZM195.575 16.7614L202.805 30H196.015L188.941 16.7614H195.575Z" fill="white"/>
</svg>
