<svg width="16" height="16" viewBox="0 0 16 16" fill="none" xmlns="http://www.w3.org/2000/svg">
<g id="mdi:pinterest">
<path id="Vector" d="M6.02659 14.3602C6.66658 14.5535 7.31325 14.6668 7.99992 14.6668C9.76803 14.6668 11.4637 13.9644 12.714 12.7142C13.9642 11.464 14.6666 9.76827 14.6666 8.00016C14.6666 7.12468 14.4941 6.25778 14.1591 5.44894C13.8241 4.6401 13.333 3.90517 12.714 3.28612C12.0949 2.66706 11.36 2.176 10.5511 1.84097C9.7423 1.50593 8.8754 1.3335 7.99992 1.3335C7.12444 1.3335 6.25753 1.50593 5.4487 1.84097C4.63986 2.176 3.90493 2.66706 3.28587 3.28612C2.03563 4.53636 1.33325 6.23205 1.33325 8.00016C1.33325 10.8335 3.11325 13.2668 5.62658 14.2268C5.56658 13.7068 5.50658 12.8468 5.62658 12.2535L6.39325 8.96016C6.39325 8.96016 6.19992 8.5735 6.19992 7.96016C6.19992 7.04016 6.77325 6.3535 7.42659 6.3535C7.99992 6.3535 8.26658 6.7735 8.26658 7.3135C8.26658 7.88683 7.88658 8.70683 7.69325 9.49349C7.57992 10.1468 8.03992 10.7202 8.70658 10.7202C9.89325 10.7202 10.8133 9.4535 10.8133 7.66683C10.8133 6.06683 9.66658 4.9735 8.01992 4.9735C6.13992 4.9735 5.03325 6.3735 5.03325 7.84683C5.03325 8.42016 5.21992 9.00016 5.52659 9.38016C5.58659 9.42016 5.58659 9.4735 5.56659 9.57349L5.37325 10.3002C5.37325 10.4135 5.29992 10.4535 5.18659 10.3735C4.33325 10.0002 3.83992 8.78683 3.83992 7.80683C3.83992 5.70016 5.33325 3.78683 8.21325 3.78683C10.5066 3.78683 12.2933 5.4335 12.2933 7.62016C12.2933 9.9135 10.8733 11.7535 8.83992 11.7535C8.19325 11.7535 7.55992 11.4068 7.33325 11.0002L6.88658 12.5802C6.73325 13.1535 6.31325 13.9202 6.02659 14.3802V14.3602Z" fill="white"/>
</g>
</svg>
