<svg width="362" height="48" viewBox="0 0 362 48" fill="none" xmlns="http://www.w3.org/2000/svg">
<g clip-path="url(#clip0_1845_3889)">
<path d="M35.8368 28.64C35.3188 29.142 35.0808 29.868 35.1988 30.58L36.9768 40.42C37.1268 41.254 36.7748 42.098 36.0768 42.58C35.3928 43.08 34.4828 43.14 33.7368 42.74L24.8788 38.12C24.5708 37.956 24.2288 37.868 23.8788 37.858H23.3368C23.1488 37.886 22.9648 37.946 22.7968 38.038L13.9368 42.68C13.4988 42.9 13.0028 42.978 12.5168 42.9C11.3328 42.676 10.5428 41.548 10.7368 40.358L12.5168 30.518C12.6348 29.8 12.3968 29.07 11.8788 28.56L4.65678 21.56C4.05278 20.974 3.84278 20.094 4.11878 19.3C4.38678 18.508 5.07078 17.93 5.89678 17.8L15.8368 16.358C16.5928 16.28 17.2568 15.82 17.5968 15.14L21.9768 6.16C22.0808 5.96 22.2148 5.776 22.3768 5.62L22.5568 5.48C22.6508 5.376 22.7588 5.29 22.8788 5.22L23.0968 5.14L23.4368 5H24.2788C25.0308 5.078 25.6928 5.528 26.0388 6.2L30.4768 15.14C30.7968 15.794 31.4188 16.248 32.1368 16.358L42.0768 17.8C42.9168 17.92 43.6188 18.5 43.8968 19.3C44.1588 20.102 43.9328 20.982 43.3168 21.56L35.8368 28.64Z" fill="#DEDEDE"/>
<path d="M87.8368 28.64C87.3188 29.142 87.0808 29.868 87.1988 30.58L88.9768 40.42C89.1268 41.254 88.7748 42.098 88.0768 42.58C87.3928 43.08 86.4828 43.14 85.7368 42.74L76.8788 38.12C76.5708 37.956 76.2288 37.868 75.8788 37.858H75.3368C75.1488 37.886 74.9648 37.946 74.7968 38.038L65.9368 42.68C65.4988 42.9 65.0028 42.978 64.5168 42.9C63.3328 42.676 62.5428 41.548 62.7368 40.358L64.5168 30.518C64.6348 29.8 64.3968 29.07 63.8788 28.56L56.6568 21.56C56.0528 20.974 55.8428 20.094 56.1188 19.3C56.3868 18.508 57.0708 17.93 57.8968 17.8L67.8368 16.358C68.5928 16.28 69.2568 15.82 69.5968 15.14L73.9768 6.16C74.0808 5.96 74.2148 5.776 74.3768 5.62L74.5568 5.48C74.6508 5.376 74.7588 5.29 74.8788 5.22L75.0968 5.14L75.4368 5H76.2788C77.0308 5.078 77.6928 5.528 78.0388 6.2L82.4768 15.14C82.7968 15.794 83.4188 16.248 84.1368 16.358L94.0768 17.8C94.9168 17.92 95.6188 18.5 95.8968 19.3C96.1588 20.102 95.9328 20.982 95.3168 21.56L87.8368 28.64Z" fill="#DEDEDE"/>
<path d="M139.837 28.64C139.319 29.142 139.081 29.868 139.199 30.58L140.977 40.42C141.127 41.254 140.775 42.098 140.077 42.58C139.393 43.08 138.483 43.14 137.737 42.74L128.879 38.12C128.571 37.956 128.229 37.868 127.879 37.858H127.337C127.149 37.886 126.965 37.946 126.797 38.038L117.937 42.68C117.499 42.9 117.003 42.978 116.517 42.9C115.333 42.676 114.543 41.548 114.737 40.358L116.517 30.518C116.635 29.8 116.397 29.07 115.879 28.56L108.657 21.56C108.053 20.974 107.843 20.094 108.119 19.3C108.387 18.508 109.071 17.93 109.897 17.8L119.837 16.358C120.593 16.28 121.257 15.82 121.597 15.14L125.977 6.16C126.081 5.96 126.215 5.776 126.377 5.62L126.557 5.48C126.651 5.376 126.759 5.29 126.879 5.22L127.097 5.14L127.437 5H128.279C129.031 5.078 129.693 5.528 130.039 6.2L134.477 15.14C134.797 15.794 135.419 16.248 136.137 16.358L146.077 17.8C146.917 17.92 147.619 18.5 147.897 19.3C148.159 20.102 147.933 20.982 147.317 21.56L139.837 28.64Z" fill="#DEDEDE"/>
<path d="M191.837 28.64C191.319 29.142 191.081 29.868 191.199 30.58L192.977 40.42C193.127 41.254 192.775 42.098 192.077 42.58C191.393 43.08 190.483 43.14 189.737 42.74L180.879 38.12C180.571 37.956 180.229 37.868 179.879 37.858H179.337C179.149 37.886 178.965 37.946 178.797 38.038L169.937 42.68C169.499 42.9 169.003 42.978 168.517 42.9C167.333 42.676 166.543 41.548 166.737 40.358L168.517 30.518C168.635 29.8 168.397 29.07 167.879 28.56L160.657 21.56C160.053 20.974 159.843 20.094 160.119 19.3C160.387 18.508 161.071 17.93 161.897 17.8L171.837 16.358C172.593 16.28 173.257 15.82 173.597 15.14L177.977 6.16C178.081 5.96 178.215 5.776 178.377 5.62L178.557 5.48C178.651 5.376 178.759 5.29 178.879 5.22L179.097 5.14L179.437 5H180.279C181.031 5.078 181.693 5.528 182.039 6.2L186.477 15.14C186.797 15.794 187.419 16.248 188.137 16.358L198.077 17.8C198.917 17.92 199.619 18.5 199.897 19.3C200.159 20.102 199.933 20.982 199.317 21.56L191.837 28.64Z" fill="#DEDEDE"/>
<path d="M243.837 28.64C243.319 29.142 243.081 29.868 243.199 30.58L244.977 40.42C245.127 41.254 244.775 42.098 244.077 42.58C243.393 43.08 242.483 43.14 241.737 42.74L232.879 38.12C232.571 37.956 232.229 37.868 231.879 37.858H231.337C231.149 37.886 230.965 37.946 230.797 38.038L221.937 42.68C221.499 42.9 221.003 42.978 220.517 42.9C219.333 42.676 218.543 41.548 218.737 40.358L220.517 30.518C220.635 29.8 220.397 29.07 219.879 28.56L212.657 21.56C212.053 20.974 211.843 20.094 212.119 19.3C212.387 18.508 213.071 17.93 213.897 17.8L223.837 16.358C224.593 16.28 225.257 15.82 225.597 15.14L229.977 6.16C230.081 5.96 230.215 5.776 230.377 5.62L230.557 5.48C230.651 5.376 230.759 5.29 230.879 5.22L231.097 5.14L231.437 5H232.279C233.031 5.078 233.693 5.528 234.039 6.2L238.477 15.14C238.797 15.794 239.419 16.248 240.137 16.358L250.077 17.8C250.917 17.92 251.619 18.5 251.897 19.3C252.159 20.102 251.933 20.982 251.317 21.56L243.837 28.64Z" fill="#DEDEDE"/>
<path d="M319.716 35.8864C317.92 35.8788 316.386 35.4053 315.114 34.4659C313.841 33.5265 312.867 32.1591 312.193 30.3636C311.519 28.5682 311.182 26.4053 311.182 23.875C311.182 21.3523 311.519 19.197 312.193 17.4091C312.875 15.6212 313.852 14.2576 315.125 13.3182C316.405 12.3788 317.936 11.9091 319.716 11.9091C321.496 11.9091 323.023 12.3826 324.295 13.3295C325.568 14.2689 326.542 15.6326 327.216 17.4205C327.898 19.2008 328.239 21.3523 328.239 23.875C328.239 26.4129 327.902 28.5795 327.227 30.375C326.553 32.1629 325.58 33.5303 324.307 34.4773C323.034 35.4167 321.504 35.8864 319.716 35.8864ZM319.716 32.8523C321.292 32.8523 322.523 32.0833 323.409 30.5455C324.303 29.0076 324.75 26.7841 324.75 23.875C324.75 21.9432 324.545 20.3106 324.136 18.9773C323.735 17.6364 323.155 16.6212 322.398 15.9318C321.648 15.2348 320.754 14.8864 319.716 14.8864C318.148 14.8864 316.917 15.6591 316.023 17.2045C315.129 18.75 314.678 20.9735 314.67 23.875C314.67 25.8144 314.871 27.4545 315.273 28.7955C315.682 30.1288 316.261 31.1402 317.011 31.8295C317.761 32.5114 318.663 32.8523 319.716 32.8523ZM341.179 11.1364L333.679 39H330.645L338.145 11.1364H341.179ZM351.702 35.8182C350.277 35.8182 348.997 35.5455 347.861 35C346.732 34.447 345.83 33.6894 345.156 32.7273C344.482 31.7652 344.122 30.6667 344.077 29.4318H347.486C347.569 30.4318 348.012 31.2538 348.815 31.8977C349.618 32.5417 350.58 32.8636 351.702 32.8636C352.596 32.8636 353.387 32.6591 354.077 32.25C354.774 31.8333 355.319 31.2614 355.713 30.5341C356.115 29.8068 356.315 28.9773 356.315 28.0455C356.315 27.0985 356.111 26.2538 355.702 25.5114C355.293 24.7689 354.728 24.1856 354.009 23.7614C353.296 23.3371 352.478 23.1212 351.554 23.1136C350.849 23.1136 350.141 23.2348 349.429 23.4773C348.717 23.7197 348.141 24.0379 347.702 24.4318L344.486 23.9545L345.793 12.2273H358.588V15.2386H348.713L347.974 21.75H348.111C348.565 21.3106 349.168 20.9432 349.918 20.6477C350.675 20.3523 351.486 20.2045 352.349 20.2045C353.766 20.2045 355.027 20.5417 356.134 21.2159C357.247 21.8902 358.122 22.8106 358.759 23.9773C359.402 25.1364 359.721 26.4697 359.713 27.9773C359.721 29.4848 359.38 30.8295 358.69 32.0114C358.009 33.1932 357.062 34.125 355.849 34.8068C354.645 35.4811 353.262 35.8182 351.702 35.8182Z" fill="#DBDBDB"/>
</g>
<defs>
<clipPath id="clip0_1845_3889">
<rect width="362" height="48" fill="white"/>
</clipPath>
</defs>
</svg>
