<svg width="31" height="30" viewBox="0 0 31 30" fill="none" xmlns="http://www.w3.org/2000/svg">
<rect x="0.991699" width="30" height="30" rx="15" fill="#33CCFF"/>
<path d="M23.4375 10.2506C22.9421 10.464 22.4214 10.6126 21.8881 10.6927C22.1374 10.6499 22.5043 10.2007 22.6503 10.0189C22.8722 9.74466 23.0412 9.43158 23.149 9.09558C23.149 9.07062 23.1739 9.03497 23.149 9.01715C23.1364 9.01028 23.1223 9.00669 23.108 9.00669C23.0937 9.00669 23.0796 9.01028 23.067 9.01715C22.488 9.33102 21.8716 9.57058 21.2327 9.73015C21.2104 9.73696 21.1867 9.73757 21.1641 9.73192C21.1415 9.72626 21.1209 9.71456 21.1045 9.69806C21.0547 9.63879 21.0012 9.58282 20.9442 9.53051C20.6836 9.29681 20.3879 9.10553 20.068 8.96367C19.6361 8.78634 19.1696 8.70954 18.7038 8.73908C18.2518 8.76765 17.8104 8.889 17.4073 9.09558C17.0103 9.31337 16.6613 9.60925 16.3815 9.96544C16.0871 10.332 15.8745 10.7575 15.7581 11.2132C15.6622 11.6466 15.6513 12.0946 15.7261 12.5322C15.7261 12.6071 15.7261 12.6178 15.662 12.6071C13.1224 12.2328 11.0387 11.3308 9.33615 9.39504C9.26135 9.30948 9.22217 9.30948 9.16162 9.39504C8.42076 10.5216 8.7805 12.3041 9.70658 13.1846C9.83125 13.3023 9.95947 13.4164 10.0948 13.5233C9.67022 13.4931 9.25599 13.378 8.87667 13.1846C8.80544 13.1383 8.76626 13.1632 8.7627 13.2488C8.7526 13.3674 8.7526 13.4867 8.7627 13.6053C8.83702 14.1738 9.06085 14.7123 9.41131 15.1658C9.76176 15.6193 10.2263 15.9715 10.7573 16.1864C10.8868 16.2419 11.0217 16.2837 11.1598 16.3111C10.7667 16.3886 10.3636 16.4007 9.9666 16.3468C9.88111 16.329 9.84906 16.3753 9.88111 16.4573C10.4047 17.8833 11.5409 18.3182 12.3744 18.5607C12.4884 18.5785 12.6024 18.5785 12.7306 18.607C12.7306 18.607 12.7306 18.607 12.7092 18.6284C12.4634 19.0776 11.4697 19.3806 11.0138 19.5375C10.1816 19.8367 9.29438 19.951 8.41363 19.8726C8.27472 19.8512 8.24267 19.8548 8.20705 19.8726C8.17143 19.8904 8.20705 19.9296 8.24623 19.9653C8.42432 20.0829 8.60241 20.1863 8.78763 20.2861C9.33902 20.5871 9.92195 20.8263 10.5258 20.9991C13.6531 21.8619 17.1722 21.2273 19.5194 18.8922C21.3645 17.0598 22.0127 14.5322 22.0127 12.0011C22.0127 11.9048 22.1303 11.8478 22.198 11.7979C22.6647 11.4338 23.0763 11.0039 23.4197 10.5216C23.4791 10.4497 23.5096 10.3581 23.5051 10.2649C23.5051 10.2114 23.5051 10.2221 23.4375 10.2506Z" fill="white"/>
</svg>
