<svg width="30" height="30" viewBox="0 0 30 30" fill="none" xmlns="http://www.w3.org/2000/svg">
<path fill-rule="evenodd" clip-rule="evenodd" d="M15.0076 2.50001C12.0385 2.49672 9.16525 3.57814 6.90286 5.55046C4.64046 7.52278 3.13678 10.2571 2.66129 13.2633C2.18579 16.2696 2.76957 19.3513 4.308 21.9561C5.84643 24.561 8.23895 26.5187 11.0568 27.4784C11.6871 27.5974 11.9115 27.2004 11.9115 26.8616C11.9115 26.5552 11.8989 25.5466 11.8938 24.4759C8.41829 25.2518 7.68587 22.9643 7.68587 22.9643C7.45648 22.1893 6.96469 21.5239 6.29918 21.088C5.16462 20.2928 6.38616 20.3122 6.38616 20.3122C6.78228 20.3682 7.16069 20.5162 7.49255 20.745C7.8244 20.9738 8.10094 21.2773 8.30106 21.6324C8.47033 21.9485 8.69902 22.227 8.97389 22.4519C9.24877 22.6768 9.56437 22.8435 9.90246 22.9424C10.2405 23.0414 10.5944 23.0706 10.9436 23.0284C11.2927 22.9863 11.6303 22.8735 11.9367 22.6966C11.9924 22.0465 12.2738 21.4386 12.7296 20.9833C9.95626 20.66 7.03791 19.5609 7.03791 14.6472C7.02067 13.3739 7.48204 12.1426 8.32627 11.2089C7.94358 10.1039 7.98642 8.89083 8.44603 7.81716C8.44603 7.81716 9.49487 7.4732 11.8825 9.13093C13.93 8.55681 16.0902 8.55681 18.1377 9.13093C20.5203 7.4732 21.5628 7.81716 21.5628 7.81716C22.0244 8.89003 22.0695 10.1031 21.6889 11.2089C22.5328 12.1427 22.9933 13.3741 22.9747 14.6472C22.9747 19.57 20.0514 20.6523 17.2704 20.9691C17.5681 21.2797 17.7978 21.652 17.9441 22.0609C18.0904 22.4699 18.15 22.9061 18.1188 23.3406C18.1188 25.0552 18.1037 26.4362 18.1037 26.8578C18.1037 27.1979 18.3293 27.5974 18.9622 27.472C21.7756 26.5086 24.1632 24.5499 25.6978 21.9463C27.2324 19.3427 27.8139 16.264 27.3383 13.2609C26.8628 10.2578 25.3611 7.52621 23.102 5.55471C20.8429 3.58321 17.9737 2.50042 15.0076 2.50001V2.50001Z" fill="#1F2A37"/>
</svg>
