<svg width="30" height="30" viewBox="0 0 30 30" fill="none" xmlns="http://www.w3.org/2000/svg">
<path d="M18.2451 22.4504C18.9191 21.7774 20.01 21.7792 20.6818 22.4543C21.3536 23.1295 21.3519 24.2223 20.6779 24.8953L17.6852 27.8838C14.9241 30.6408 10.4218 30.6808 7.61413 27.9765C7.59789 27.9611 6.34773 26.7352 2.22352 22.6911C-0.520214 20.0008 -0.793557 15.6959 1.78837 12.9315L6.60235 7.77688C9.16486 5.03294 13.8885 4.73302 16.8184 7.1024L21.1906 10.6384C21.9311 11.2372 22.0467 12.3239 21.4489 13.0656C20.8512 13.8074 19.7663 13.9232 19.0259 13.3244L14.6537 9.78845C13.1214 8.54932 10.4411 8.71951 9.11889 10.1353L4.30484 15.2899C3.04789 16.6357 3.18556 18.8038 4.63408 20.2241C7.66257 23.1937 9.99659 25.4823 9.99929 25.4849C11.459 26.8908 13.8192 26.8698 15.2523 25.4387L18.2451 22.4504Z" fill="#1F2A37" fill-opacity="0.8"/>
<path fill-rule="evenodd" clip-rule="evenodd" d="M10.975 19.4598C10.0234 19.4598 9.25195 18.687 9.25195 17.7337C9.25195 16.7805 10.0234 16.0077 10.975 16.0077H23.6825C24.6341 16.0077 25.4055 16.7805 25.4055 17.7337C25.4055 18.687 24.6341 19.4598 23.6825 19.4598H10.975Z" fill="#1F2A37" fill-opacity="0.3"/>
<path fill-rule="evenodd" clip-rule="evenodd" d="M13.3547 0.546851C14.0048 -0.149276 15.0952 -0.185647 15.7901 0.465614C16.485 1.11688 16.5213 2.20915 15.8712 2.90527L4.30489 15.29C3.04792 16.6357 3.18557 18.8037 4.634 20.2241L9.97548 25.4619C10.6555 26.1288 10.6672 27.2216 10.0015 27.9027C9.33581 28.5841 8.24489 28.5957 7.56486 27.9289L2.22336 22.691C-0.520216 20.0006 -0.793557 15.6957 1.78848 12.9314L13.3547 0.546851Z" fill="#1F2A37"/>
</svg>
