<svg width="30" height="30" viewBox="0 0 30 30" fill="none" xmlns="http://www.w3.org/2000/svg">
<path fill-rule="evenodd" clip-rule="evenodd" d="M27.245 10.021C27.1268 9.12864 26.7842 8.28037 26.2489 7.55471C25.5854 6.88998 24.6857 6.51154 23.7441 6.50115C20.2507 6.25 15 6.25 15 6.25C15 6.25 9.75179 6.25 6.25341 6.50115C5.3121 6.51133 4.41269 6.88983 3.74987 7.55471C3.21219 8.27966 2.86895 9.12885 2.7525 10.0222C2.59646 11.3588 2.51218 12.7027 2.5 14.0482V15.9318C2.5121 17.2772 2.59639 18.6211 2.7525 19.9577C2.87118 20.8519 3.21129 21.7028 3.7423 22.434C4.50446 23.1068 5.4844 23.4848 6.50338 23.4989C8.50192 23.6885 15.0013 23.75 15.0013 23.75C15.0013 23.75 20.2545 23.75 23.7479 23.4989C24.69 23.4879 25.5901 23.1091 26.2539 22.444C26.788 21.7175 27.1297 20.8689 27.2475 19.9765C27.4035 18.6399 27.4878 17.2961 27.5 15.9506V14.0469C27.4858 12.7014 27.4007 11.3576 27.245 10.021V10.021ZM12.4838 18.2511V11.1939L19.3013 14.7338L12.4838 18.2511Z" fill="#1F2A37"/>
</svg>
